<?xml version="1.0" standalone="no"?>
<!DOCTYPE svg PUBLIC "-//W3C//DTD SVG 20010904//EN"
 "http://www.w3.org/TR/2001/REC-SVG-20010904/DTD/svg10.dtd">
<svg version="1.0" xmlns="http://www.w3.org/2000/svg"
 width="1200.000000pt" height="1200.000000pt" viewBox="0 0 1200.000000 1200.000000"
 preserveAspectRatio="xMidYMid meet">

<g transform="translate(0.000000,1200.000000) scale(0.100000,-0.100000)"
fill="#000000" stroke="none">
<path d="M5845 10793 c-549 -13 -1174 -149 -1698 -370 -870 -365 -1611 -976
-2136 -1761 -284 -425 -501 -895 -632 -1371 -220 -803 -232 -1648 -34 -2449
265 -1072 901 -2024 1799 -2694 706 -528 1565 -852 2456 -927 567 -48 1151 8
1704 164 1141 321 2128 1061 2759 2067 623 993 860 2184 666 3342 -89 528
-270 1056 -514 1494 -403 726 -924 1288 -1608 1736 -615 403 -1318 655 -2068
741 -162 18 -472 37 -549 33 -30 -2 -95 -4 -145 -5z m680 -137 c933 -112 1773
-473 2480 -1065 402 -337 739 -732 1022 -1200 83 -136 267 -511 328 -666 147
-373 249 -784 302 -1215 14 -114 18 -222 18 -510 0 -288 -4 -396 -18 -510 -52
-430 -154 -840 -302 -1215 -63 -160 -224 -492 -312 -640 -361 -612 -856 -1137
-1433 -1522 -380 -253 -734 -427 -1150 -563 -348 -115 -660 -179 -1050 -216
-217 -20 -741 -15 -940 10 -417 52 -814 151 -1175 293 -1224 481 -2181 1440
-2660 2664 -145 371 -239 747 -290 1169 -22 179 -31 687 -16 875 34 416 103
761 226 1130 394 1183 1238 2156 2354 2715 496 248 1084 419 1616 470 61 5
126 12 145 14 98 11 723 -3 855 -18z"/>
<path d="M5775 10549 c-689 -27 -1437 -246 -2045 -599 -782 -454 -1407 -1117
-1810 -1920 -225 -448 -376 -949 -440 -1460 -96 -768 5 -1559 287 -2255 244
-601 575 -1100 1028 -1550 574 -570 1269 -967 2055 -1174 566 -150 1212 -185
1795 -100 476 70 932 210 1350 414 610 299 1141 725 1565 1255 510 638 833
1386 949 2195 62 435 59 916 -10 1359 -144 936 -592 1816 -1270 2496 -509 511
-1080 869 -1758 1101 -547 187 -1084 263 -1696 238z m630 -119 c560 -53 1081
-200 1575 -446 799 -398 1450 -1016 1895 -1799 295 -517 482 -1106 552 -1727
24 -215 24 -705 0 -915 -61 -536 -195 -1009 -421 -1478 -329 -684 -850 -1292
-1481 -1727 -540 -372 -1145 -618 -1794 -728 -250 -42 -414 -54 -731 -54 -307
0 -382 5 -660 45 -1068 156 -2060 713 -2756 1549 -869 1043 -1212 2402 -944
3741 269 1342 1178 2513 2412 3109 183 88 435 189 608 245 300 96 701 171
1045 195 145 10 548 5 700 -10z"/>
<path d="M5125 9468 c-49 -18 -84 -47 -108 -91 -21 -39 -22 -56 -25 -279 l-3
-238 50 0 51 0 0 233 c0 261 2 268 68 287 51 14 1633 14 1684 0 69 -20 68 -11
68 -432 l0 -378 50 0 51 0 -3 383 c-3 373 -4 383 -25 424 -25 45 -59 74 -112
91 -46 16 -1702 15 -1746 0z"/>
<path d="M5208 9279 c-16 -9 -18 -30 -18 -214 l0 -205 45 0 45 0 0 165 0 165
720 0 720 0 0 -310 0 -310 45 0 45 0 0 350 c0 335 -1 350 -19 360 -27 14
-1559 13 -1583 -1z"/>
<path d="M4854 8796 c-20 -9 -35 -25 -43 -46 -8 -23 -11 -210 -11 -626 l0
-592 26 -31 26 -31 499 0 500 0 24 25 25 24 0 611 c0 419 -3 618 -11 632 -25
46 -48 48 -541 48 -367 -1 -469 -4 -494 -14z m956 -661 l0 -575 -460 0 -460 0
0 575 0 575 460 0 460 0 0 -575z"/>
<path d="M4961 8646 c-8 -9 -10 -142 -9 -472 l3 -459 390 -3 c358 -2 391 -1
403 15 16 22 18 884 2 914 -10 18 -25 19 -394 19 -312 0 -386 -3 -395 -14z
m709 -461 l0 -385 -315 0 -315 0 0 385 0 385 315 0 315 0 0 -385z"/>
<path d="M5326 7667 c-12 -9 -17 -23 -14 -42 3 -26 8 -30 35 -33 27 -3 35 1
45 22 9 22 8 29 -7 46 -21 23 -34 25 -59 7z"/>
<path d="M6531 8506 c-50 -28 -50 -29 -51 -518 l0 -456 26 -31 26 -31 308 0
308 0 26 31 26 31 0 453 c0 488 -1 494 -51 521 -39 20 -582 20 -618 0z m577
-513 l2 -433 -270 0 -270 0 0 428 c0 236 3 432 7 435 4 4 124 6 267 5 l261 -3
3 -432z"/>
<path d="M6635 8358 c-3 -7 -4 -155 -3 -328 l3 -315 205 0 205 0 0 325 0 325
-203 3 c-157 2 -204 0 -207 -10z m325 -318 l0 -240 -120 0 -120 0 0 240 0 240
120 0 120 0 0 -240z"/>
<path d="M6822 7673 c-22 -9 -34 -41 -22 -63 23 -44 101 -12 84 35 -5 13 -36
37 -46 34 -2 0 -9 -3 -16 -6z"/>
<path d="M5950 8085 l0 -45 240 0 240 0 0 45 0 45 -240 0 -240 0 0 -45z"/>
<path d="M6192 7873 l3 -118 118 -3 117 -3 0 51 0 50 -70 0 c-68 0 -70 1 -70
25 0 24 2 25 70 25 l70 0 0 45 0 45 -120 0 -121 0 3 -117z"/>
<path d="M5950 7655 l0 -45 240 0 240 0 0 45 0 45 -240 0 -240 0 0 -45z"/>
<path d="M4920 6590 l0 -70 40 0 40 0 0 -249 0 -249 -26 -31 c-30 -36 -78 -48
-129 -31 -51 17 -75 60 -75 133 l0 58 -77 -3 -78 -3 3 -70 c3 -92 24 -146 74
-190 58 -53 100 -68 193 -69 93 -1 143 14 193 58 71 62 77 88 80 384 l3 262
35 0 34 0 0 70 0 70 -155 0 -155 0 0 -70z"/>
<path d="M7108 6410 c-39 -12 -81 -44 -98 -74 -23 -43 -40 -33 -40 24 l0 50
-70 0 -70 0 0 -295 0 -295 69 0 69 0 4 183 c3 168 5 185 25 218 36 57 110 77
172 44 53 -27 61 -63 61 -264 l0 -181 76 0 76 0 -4 223 c-3 205 -5 225 -25
263 -48 91 -148 133 -245 104z"/>
<path d="M5370 6190 c0 -240 5 -268 58 -323 36 -38 118 -61 185 -52 45 6 58
13 98 56 26 26 49 46 53 42 3 -3 6 -26 6 -50 l0 -43 75 0 75 0 0 295 0 295
-75 0 -75 0 0 -173 c0 -159 -2 -176 -22 -217 -26 -51 -56 -70 -110 -70 -48 0
-83 16 -105 49 -15 22 -18 55 -21 219 l-4 192 -69 0 -69 0 0 -220z"/>
<path d="M6100 6190 c0 -240 5 -268 58 -323 36 -38 118 -61 185 -52 45 6 58
13 98 56 26 26 49 46 53 42 3 -3 6 -26 6 -50 l0 -43 75 0 75 0 0 295 0 295
-75 0 -75 0 0 -173 c0 -159 -2 -176 -22 -217 -26 -51 -56 -70 -110 -70 -48 0
-83 16 -105 49 -15 22 -18 55 -21 219 l-4 192 -69 0 -69 0 0 -220z"/>
<path d="M5227 5172 c-47 -52 18 -135 67 -86 33 33 10 104 -33 104 -10 0 -25
-8 -34 -18z"/>
<path d="M9276 5170 c-54 -16 -96 -75 -96 -135 0 -23 4 -25 40 -25 37 0 40 2
40 28 0 33 36 72 66 72 36 0 64 -28 64 -65 0 -40 -22 -65 -56 -65 -35 0 -64
-34 -64 -75 0 -33 2 -35 34 -35 25 0 35 5 39 20 3 11 13 20 24 20 36 0 82 38
94 79 35 119 -64 217 -185 181z"/>
<path d="M2527 5163 c-2 -5 -3 -100 -3 -213 l1 -205 38 -3 37 -3 0 80 0 81 56
0 c102 0 154 45 154 135 0 101 -47 135 -188 135 -50 0 -93 -3 -95 -7z m193
-83 c11 -11 20 -31 20 -45 0 -41 -33 -65 -90 -65 l-50 0 0 65 0 65 50 0 c37 0
55 -5 70 -20z"/>
<path d="M2963 5030 c-110 -56 -108 -227 3 -281 74 -35 145 -16 198 55 29 38
29 134 0 172 -51 70 -129 90 -201 54z m121 -71 c22 -17 26 -28 26 -69 0 -41
-4 -52 -26 -69 -15 -12 -38 -21 -51 -21 -36 0 -83 51 -83 90 0 39 47 90 83 90
13 0 36 -9 51 -21z"/>
<path d="M3780 5022 l-30 -30 0 24 c0 23 -3 24 -65 24 l-65 0 0 -35 c0 -32 2
-35 30 -35 l30 0 0 -80 0 -80 -30 0 c-28 0 -30 -3 -30 -35 l0 -35 100 0 100 0
0 35 c0 33 -2 35 -35 35 l-35 0 0 65 c0 52 4 69 20 85 29 29 58 25 78 -10 13
-24 24 -30 50 -30 30 0 32 2 32 34 0 46 -34 85 -82 93 -32 5 -41 1 -68 -25z"/>
<path d="M4062 5034 c-86 -44 -98 -224 -19 -279 50 -35 139 -26 152 16 14 43
25 14 25 -66 l0 -85 35 0 35 0 0 210 0 210 -35 0 c-28 0 -35 -4 -35 -20 0 -25
-8 -25 -28 1 -23 28 -88 34 -130 13z m133 -79 c54 -53 18 -155 -55 -155 -19 0
-40 9 -55 25 -54 53 -18 155 55 155 19 0 40 -9 55 -25z"/>
<path d="M4813 5030 c-110 -56 -108 -227 3 -281 74 -35 145 -16 198 55 29 38
29 134 0 172 -51 70 -129 90 -201 54z m121 -71 c22 -17 26 -28 26 -69 0 -41
-4 -52 -26 -69 -15 -12 -38 -21 -51 -21 -36 0 -83 51 -83 90 0 39 47 90 83 90
13 0 36 -9 51 -21z"/>
<path d="M5980 5043 c-8 -3 -25 -15 -37 -26 -13 -11 -24 -17 -24 -14 -1 4 -2
13 -3 20 0 6 -18 13 -38 15 l-38 3 0 -210 0 -211 35 0 c19 0 36 5 36 10 1 6 2
41 3 79 1 70 10 98 22 67 8 -20 55 -46 84 -46 124 0 176 197 77 288 -25 24
-88 37 -117 25z m71 -92 c20 -20 29 -39 29 -61 0 -39 -47 -90 -84 -90 -72 0
-108 109 -52 157 37 31 71 29 107 -6z"/>
<path d="M6283 5035 c-50 -21 -73 -68 -73 -145 0 -48 5 -74 20 -98 38 -62 140
-79 175 -30 l15 22 20 -22 c14 -14 33 -22 55 -22 33 0 35 2 35 34 0 21 -6 36
-15 40 -12 4 -15 27 -15 116 l0 110 -35 0 c-28 0 -35 -4 -35 -20 0 -23 -15
-27 -27 -6 -10 17 -47 36 -70 36 -10 -1 -33 -7 -50 -15z m107 -65 c29 -15 44
-73 30 -115 -19 -59 -73 -73 -115 -30 -67 66 5 188 85 145z"/>
<path d="M6673 5036 c-78 -36 -69 -143 14 -162 82 -18 103 -26 103 -37 0 -39
-67 -50 -101 -16 -15 15 -28 19 -50 14 -37 -8 -37 -29 -1 -65 52 -51 170 -50
207 3 25 35 19 92 -11 116 -28 22 -39 26 -97 36 -40 6 -59 31 -36 46 22 14 48
10 67 -9 16 -16 22 -17 50 -5 28 12 31 16 22 33 -26 49 -110 72 -167 46z"/>
<path d="M7773 5030 c-110 -56 -108 -227 3 -281 74 -35 145 -16 198 55 15 20
21 42 21 86 0 44 -6 66 -21 86 -51 70 -129 90 -201 54z m121 -71 c22 -17 26
-28 26 -69 0 -41 -4 -52 -26 -69 -15 -12 -38 -21 -51 -21 -36 0 -83 51 -83 90
0 39 47 90 83 90 13 0 36 -9 51 -21z"/>
<path d="M8523 5036 c-78 -36 -69 -143 14 -162 82 -18 103 -26 103 -37 0 -39
-67 -50 -101 -16 -15 15 -28 19 -50 14 -37 -8 -37 -29 -1 -65 52 -51 170 -50
207 3 25 35 19 92 -11 116 -28 22 -39 26 -97 36 -40 6 -59 31 -36 46 22 14 48
10 67 -9 16 -16 22 -17 50 -5 28 12 31 16 22 33 -26 49 -110 72 -167 46z"/>
<path d="M3272 4916 c3 -115 5 -126 27 -150 44 -47 112 -44 153 8 l18 21 0
-27 c0 -25 4 -28 35 -28 l35 0 0 150 0 150 -35 0 -35 0 0 -94 c0 -79 -3 -97
-21 -120 -25 -31 -61 -34 -89 -6 -17 17 -20 33 -20 120 l0 100 -36 0 -36 0 4
-124z"/>
<path d="M4382 4916 c3 -115 5 -126 27 -150 44 -47 112 -44 153 8 l18 21 0
-27 c0 -25 4 -28 35 -28 l35 0 0 150 0 150 -35 0 -35 0 0 -94 c0 -79 -3 -97
-21 -120 -25 -31 -61 -34 -89 -6 -17 17 -20 33 -20 120 l0 100 -36 0 -36 0 4
-124z"/>
<path d="M5130 5005 c0 -35 0 -35 44 -35 51 0 52 -2 52 -90 l-1 -65 -52 -3
-53 -3 0 -35 0 -34 130 0 130 0 0 35 c0 34 -1 35 -40 35 l-40 0 0 115 0 115
-85 0 -85 0 0 -35z"/>
<path d="M7320 5035 c0 -4 19 -71 42 -151 l41 -145 71 3 70 3 42 145 41 145
-34 3 c-19 2 -37 1 -39 -1 -3 -2 -14 -37 -25 -78 -40 -150 -50 -179 -57 -179
-4 0 -23 59 -42 130 l-34 130 -38 0 c-21 0 -38 -2 -38 -5z"/>
<path d="M8082 4916 c3 -115 5 -126 27 -150 44 -47 112 -44 153 8 l18 21 0
-27 c0 -25 4 -28 35 -28 l35 0 0 150 0 150 -35 0 -35 0 0 -94 c0 -79 -3 -97
-21 -120 -25 -31 -61 -34 -89 -6 -17 17 -20 33 -20 120 l0 100 -36 0 -36 0 4
-124z"/>
<path d="M9282 4843 c-7 -3 -17 -16 -22 -29 -22 -56 38 -107 80 -69 48 43 1
122 -58 98z"/>
<path d="M3000 4140 l0 -60 3000 0 3000 0 0 60 0 60 -3000 0 -3000 0 0 -60z"/>
</g>
</svg>
